<?xml version="1.0" standalone="no"?>
<!DOCTYPE svg PUBLIC "-//W3C//DTD SVG 20010904//EN"
 "http://www.w3.org/TR/2001/REC-SVG-20010904/DTD/svg10.dtd">
<svg version="1.0" xmlns="http://www.w3.org/2000/svg"
 width="500.000000pt" height="500.000000pt" viewBox="0 0 500.000000 500.000000"
 preserveAspectRatio="xMidYMid meet">
<metadata>
Created by potrace 1.14, written by Peter Selinger 2001-2017
</metadata>
<g transform="translate(0.000000,500.000000) scale(0.100000,-0.100000)"
fill="#000000" stroke="none">
<path d="M1993 4726 c10 -15 16 -34 13 -42 -3 -9 -1 -12 4 -9 6 3 13 -2 16
-12 3 -10 10 -27 15 -38 4 -11 10 -27 11 -35 2 -8 9 -21 16 -28 7 -8 10 -17 7
-22 -3 -5 -1 -10 5 -12 6 -2 11 -17 13 -35 1 -17 5 -29 9 -27 7 5 40 -87 34
-94 -3 -2 -25 10 -50 27 -24 17 -49 31 -55 31 -6 0 -11 4 -11 8 0 7 -52 31
-67 30 -3 0 -9 4 -12 9 -6 8 -120 60 -171 78 -3 1 -12 4 -20 7 -92 34 -271 69
-380 75 -96 5 -103 4 -91 -11 7 -9 19 -16 27 -16 7 0 20 -10 28 -22 9 -12 16
-18 16 -13 0 5 16 -6 35 -25 19 -18 31 -38 28 -44 -3 -6 -3 -8 2 -4 8 8 19 -2
59 -54 16 -21 24 -38 18 -38 -6 0 -14 4 -17 10 -17 27 -219 66 -335 64 -72 -1
-169 -10 -200 -19 -8 -2 -29 -7 -47 -10 -18 -3 -42 -9 -55 -14 -13 -5 -25 -8
-28 -8 -8 0 -83 -23 -105 -33 -11 -5 -33 -15 -50 -21 l-30 -11 23 -12 c12 -7
19 -15 15 -20 -4 -4 0 -4 9 -1 10 4 23 -1 34 -14 10 -11 22 -17 27 -14 5 3 12
1 16 -3 3 -5 17 -14 30 -20 23 -10 18 -14 -80 -61 -57 -28 -108 -52 -114 -53
-5 -1 -22 -11 -37 -21 -14 -10 -29 -19 -32 -19 -4 0 -34 -17 -69 -37 -34 -21
-76 -45 -92 -53 -17 -8 -32 -18 -35 -21 -3 -3 -36 -26 -75 -51 -85 -56 -211
-148 -205 -149 3 -1 32 -3 66 -4 33 -2 76 -6 95 -10 19 -3 44 -8 56 -10 12 -2
27 -6 33 -10 11 -7 55 -17 78 -18 6 0 12 -4 12 -9 0 -4 6 -8 13 -8 7 0 32 -9
55 -20 22 -11 46 -20 52 -20 5 0 10 -4 10 -10 0 -5 9 -10 20 -10 11 0 20 -3
20 -7 0 -5 18 -17 40 -27 22 -11 40 -22 40 -26 0 -4 9 -10 21 -13 12 -3 18
-10 15 -15 -3 -5 2 -9 12 -8 9 0 16 -5 14 -12 -1 -8 2 -11 8 -7 14 9 42 -14
33 -28 -3 -5 -1 -7 4 -4 6 4 24 -3 39 -15 45 -35 54 -45 46 -53 -4 -5 -2 -5 4
-2 13 8 129 -96 129 -115 0 -7 9 -13 20 -13 12 0 22 -9 26 -25 4 -14 7 -19 8
-12 1 7 6 10 11 7 6 -4 9 -14 8 -23 -2 -9 2 -16 9 -15 6 2 21 -9 31 -22 11
-14 23 -25 26 -25 12 0 55 -54 56 -69 0 -8 3 -11 7 -8 8 9 39 -34 35 -48 -2
-5 -1 -7 3 -3 11 11 37 -20 29 -34 -4 -7 -4 -10 0 -6 9 8 46 -22 46 -37 0 -6
9 -16 20 -23 11 -7 20 -19 20 -27 0 -8 5 -15 10 -15 6 0 10 -7 10 -15 0 -8 7
-15 16 -15 8 0 12 -4 9 -10 -3 -5 -1 -10 4 -10 6 0 11 -4 11 -10 0 -5 9 -20
20 -32 10 -13 20 -27 21 -33 1 -5 10 -16 20 -23 11 -7 19 -18 19 -23 0 -5 8
-19 19 -30 17 -18 19 -37 18 -182 0 -89 5 -194 12 -234 16 -90 17 -95 24 -113
3 -8 15 -46 28 -85 12 -38 26 -75 31 -82 5 -7 7 -16 4 -22 -3 -5 1 -11 9 -15
8 -3 15 -12 15 -21 0 -8 4 -15 9 -15 6 0 8 -9 6 -20 -2 -12 4 -25 17 -34 12
-9 17 -19 13 -27 -5 -7 -4 -10 2 -6 6 4 17 -1 24 -10 12 -14 12 -16 -1 -9 -9
4 -8 2 2 -7 10 -8 15 -17 11 -20 -3 -4 -1 -7 5 -7 7 0 12 -6 12 -12 0 -7 14
-21 31 -30 17 -10 27 -22 24 -28 -3 -5 1 -10 10 -10 9 0 14 -4 11 -9 -3 -5 3
-11 14 -14 11 -3 24 -16 29 -30 5 -14 16 -29 23 -33 9 -5 8 -2 -2 11 -10 13
-11 16 -2 11 7 -4 17 -19 22 -32 5 -13 16 -24 25 -24 10 0 15 -9 15 -27 0 -26
-35 -240 -45 -273 -2 -8 -7 -35 -10 -60 -10 -70 -15 -104 -21 -122 -4 -13 0
-18 13 -18 15 0 16 -2 3 -10 -11 -7 -11 -10 -2 -10 8 0 10 -5 6 -12 -5 -8 0
-7 11 2 10 8 19 15 20 15 1 0 10 -7 20 -15 14 -12 19 -12 23 -2 3 10 7 10 20
0 12 -10 14 -10 8 0 -4 6 -2 12 3 12 6 0 11 -6 11 -12 0 -9 3 -10 8 -2 9 14
42 14 42 0 0 -7 3 -7 8 0 8 14 54 13 64 -1 5 -6 8 -6 8 1 0 12 29 12 50 -1 9
-5 15 -4 18 4 3 9 8 9 20 -1 12 -10 14 -10 8 0 -4 6 -2 12 3 12 6 0 11 -6 11
-12 0 -9 3 -10 8 -2 9 14 42 14 42 0 0 -7 3 -7 8 0 8 14 54 13 64 -1 5 -6 8
-6 8 1 0 12 29 12 50 -1 9 -5 15 -4 18 4 3 9 8 9 20 -1 12 -10 14 -10 8 0 -4
6 -2 12 3 12 6 0 11 -6 11 -12 0 -9 3 -10 8 -2 9 14 42 14 42 0 0 -7 3 -7 8 0
9 14 64 13 74 -1 5 -6 8 -6 8 2 0 14 52 13 62 -2 5 -6 8 -5 8 2 0 7 6 10 14 7
11 -4 10 -22 -5 -107 -10 -56 -21 -117 -24 -136 -3 -19 -15 -86 -26 -150 -11
-64 -22 -127 -25 -141 -2 -14 -11 -70 -20 -125 -8 -55 -19 -112 -24 -127 -7
-22 -6 -28 6 -28 7 0 14 -8 14 -18 0 -9 10 -23 21 -31 19 -11 21 -11 16 3 -5
13 -2 14 19 6 33 -13 37 -13 28 3 -6 9 -4 9 7 -1 16 -15 33 -16 23 -1 -5 8 -1
8 14 0 15 -8 22 -8 25 2 3 6 6 3 6 -8 1 -17 3 -17 11 -5 5 8 10 11 10 7 0 -4
10 -3 21 4 15 8 19 8 15 0 -4 -6 0 -11 9 -11 10 0 13 5 9 12 -4 7 -3 8 5 4 6
-4 23 -9 37 -12 19 -3 24 -1 18 8 -5 10 -4 11 7 1 7 -7 17 -13 22 -13 4 0 5 6
1 13 -6 10 -4 10 7 0 16 -16 33 -17 23 -2 -4 8 -1 8 12 1 21 -10 95 -9 114 3
9 5 11 4 6 -3 -4 -7 -1 -12 9 -12 10 0 14 5 9 13 -6 9 -4 9 7 -1 17 -16 32
-16 23 0 -6 11 -4 11 7 0 17 -16 32 -16 23 1 -6 9 -4 9 7 0 16 -16 33 -17 23
-2 -5 8 -1 8 13 0 14 -7 24 -7 33 2 10 9 11 9 6 0 -5 -8 -1 -13 9 -13 10 0 14
5 9 13 -6 10 -4 10 7 0 7 -7 17 -13 22 -13 4 0 5 6 1 13 -6 9 -5 9 7 0 19 -16
39 13 35 51 -2 17 2 26 10 26 8 0 14 5 14 11 0 5 -6 7 -12 3 -9 -5 -9 -2 1 9
9 11 10 17 2 17 -20 0 -12 20 12 30 20 8 21 9 2 10 -12 1 -15 4 -7 7 10 4 10
8 0 21 -11 13 -11 14 1 7 10 -6 13 -4 9 6 -3 8 0 23 8 33 9 12 10 25 4 35 -5
10 -5 23 0 31 4 7 6 20 2 28 -3 10 -1 13 6 8 8 -5 10 -2 6 8 -3 9 -1 16 5 16
6 0 11 5 11 11 0 5 -4 8 -9 4 -5 -3 -12 -1 -16 5 -3 5 2 10 11 10 14 0 15 3 6
12 -9 9 -7 14 6 24 12 10 13 13 3 14 -11 0 -11 3 0 16 10 13 10 17 -2 25 -8 5
-9 9 -4 9 15 0 34 47 23 58 -12 12 1 44 16 35 6 -4 5 1 -3 11 -13 15 -13 19 0
27 12 7 12 9 0 9 -11 0 -10 4 4 13 13 10 15 16 6 21 -9 6 -9 11 0 22 9 11 9
14 0 14 -7 0 -9 5 -6 10 4 6 12 7 18 3 7 -4 6 0 -2 10 -8 11 -9 17 -3 17 6 0
9 7 5 16 -3 9 0 20 8 25 12 7 12 9 0 9 -10 0 -11 3 -2 13 6 8 8 17 4 21 -4 4
0 4 9 1 9 -4 26 -1 38 5 13 7 20 8 17 2 -7 -11 82 -10 100 1 6 4 14 3 18 -3 3
-5 13 -10 21 -10 9 0 12 5 8 12 -4 7 -3 8 5 4 20 -13 61 -14 61 -2 0 6 4 5 9
-3 7 -10 13 -11 31 -1 15 8 20 8 16 1 -8 -12 6 -15 18 -4 9 9 37 13 32 4 -3
-4 19 -7 49 -7 35 0 52 4 47 11 -3 5 1 4 9 -2 12 -10 18 -10 27 -1 7 7 12 8
12 2 0 -6 7 -11 15 -11 8 0 12 4 9 9 -8 13 10 10 25 -5 9 -7 11 -7 8 -1 -4 7
0 14 8 18 8 3 15 0 15 -6 0 -6 6 -5 17 3 11 10 14 10 9 1 -4 -6 -2 -12 3 -12
6 0 11 8 11 18 0 14 2 15 10 2 7 -10 10 -11 10 -2 0 8 9 11 25 8 14 -3 25 0
25 5 0 5 5 9 11 9 5 0 7 -5 4 -10 -9 -15 2 -12 19 6 9 9 16 11 16 4 0 -6 5 -8
10 -5 6 4 7 11 4 17 -5 7 -1 7 12 0 14 -8 21 -6 32 6 9 12 11 12 6 2 -7 -13
-5 -13 8 -2 12 9 18 10 23 2 5 -8 13 -6 25 7 9 10 16 21 14 24 -2 3 3 6 11 6
8 0 12 -4 9 -9 -3 -4 6 -3 20 3 14 7 22 17 19 23 -4 6 0 5 9 -2 13 -10 18 -10
24 -1 5 8 3 9 -6 4 -9 -6 -11 -4 -6 4 5 7 14 10 22 7 8 -3 13 0 11 7 -1 7 8
12 19 11 16 0 20 4 16 14 -3 10 -1 13 6 8 7 -4 12 -2 12 5 0 7 3 10 6 6 3 -3
16 4 28 17 14 14 16 15 6 2 -15 -19 -15 -19 11 0 15 10 25 22 23 26 -3 4 7 10
22 14 19 5 22 9 12 15 -9 6 -6 9 11 9 21 0 22 2 10 17 -8 10 -9 14 -2 10 13
-8 55 31 47 44 -3 5 1 6 8 4 9 -4 23 11 38 37 13 24 28 46 33 49 5 3 8 9 8 13
-3 18 0 20 9 6 8 -11 9 -8 6 12 -3 17 0 28 6 28 6 0 8 3 5 7 -4 3 2 13 14 21
17 12 18 16 7 30 -11 14 -10 15 7 8 11 -4 16 -4 12 0 -4 4 0 15 9 25 10 11 12
19 5 24 -8 4 -6 12 4 22 9 9 14 22 11 29 -3 8 -1 14 5 14 6 0 7 4 4 10 -3 5
-1 10 5 10 7 0 10 6 7 14 -3 8 -1 17 6 19 9 3 8 8 -2 21 -12 14 -12 16 2 10
12 -4 15 -1 12 15 -2 12 1 21 6 21 6 0 6 7 -1 20 -9 16 -8 18 5 14 8 -4 15 -2
15 4 0 6 -6 13 -12 15 -10 4 -10 6 -1 6 7 1 10 8 6 18 -4 11 -3 14 5 9 9 -5 9
0 2 20 -8 20 -8 25 3 21 13 -5 17 36 4 49 -3 3 -1 17 4 31 5 14 6 29 3 35 -5
7 -2 8 6 3 9 -5 10 -2 5 14 -4 14 -2 21 7 21 9 0 9 3 2 8 -14 9 -14 43 0 61 9
12 8 13 -3 6 -11 -6 -13 -4 -8 7 3 9 0 21 -6 27 -8 8 -6 15 9 27 10 8 13 12 5
8 -11 -5 -13 -3 -8 9 3 10 2 17 -3 17 -5 0 -6 7 -3 17 4 10 2 14 -4 10 -11 -7
-11 22 1 41 5 8 1 12 -11 12 -15 0 -16 2 -3 10 10 6 11 10 3 10 -7 0 -13 5
-13 11 0 5 6 7 13 3 9 -6 9 -5 0 8 -7 8 -9 19 -5 23 4 5 2 5 -4 2 -7 -4 -15 0
-18 9 -4 10 -2 13 7 8 8 -5 7 -2 -2 9 -7 9 -10 17 -5 17 4 0 -1 7 -12 16 -10
8 -12 12 -4 8 12 -7 13 -5 3 8 -7 8 -9 19 -5 23 4 5 2 5 -4 2 -14 -8 -27 20
-17 35 3 7 1 8 -5 4 -7 -4 -21 9 -35 31 -82 129 -276 243 -472 277 -16 3 -41
9 -55 13 -36 10 -1311 16 -1321 6 -4 -4 -10 -30 -13 -58 -4 -27 -8 -61 -11
-75 -14 -65 -16 -78 -21 -116 -2 -23 -6 -50 -8 -60 -4 -20 -15 -92 -21 -134
-4 -23 -31 -194 -41 -250 -2 -14 -6 -43 -9 -65 -3 -22 -8 -49 -10 -60 -2 -11
-4 -28 -4 -39 -1 -17 -7 -18 -58 -12 -80 8 -150 28 -224 65 -74 36 -162 108
-153 123 4 7 2 8 -4 4 -7 -4 -12 -1 -12 9 0 9 -4 13 -10 10 -6 -3 -10 1 -10 9
0 9 -5 16 -12 16 -6 0 -8 3 -5 7 4 3 -1 12 -11 20 -11 10 -12 12 -2 8 9 -4 8
-1 -3 8 -14 11 -15 16 -5 20 9 4 9 6 1 6 -7 1 -17 11 -24 22 -9 17 -8 20 3 13
11 -7 11 -5 0 9 -8 9 -11 21 -7 27 3 5 1 10 -5 10 -7 0 -9 7 -6 15 3 9 -1 18
-9 21 -11 4 -12 11 -5 23 6 12 5 22 -2 29 -16 16 -19 42 -5 42 8 0 8 3 0 11
-7 7 -8 21 -3 40 5 18 5 27 -1 24 -15 -10 -5 39 11 53 13 12 13 13 0 6 -13 -7
-13 -5 -1 9 10 13 10 17 1 17 -10 0 -10 3 0 15 10 12 10 15 -1 15 -11 0 -11 2
1 10 8 5 11 10 5 10 -5 0 -3 5 5 10 13 8 13 10 1 10 -11 0 -10 4 4 13 12 10
14 16 7 21 -9 5 -9 12 0 26 7 10 17 16 23 12 5 -3 4 1 -3 10 -9 12 -10 18 -2
23 7 4 9 16 7 27 -4 15 -3 17 8 8 11 -9 13 -6 11 14 -2 18 2 26 13 26 14 0 14
2 1 10 -12 8 -12 10 2 15 10 4 15 15 13 27 -3 14 0 18 11 14 8 -3 12 -2 9 3
-3 5 0 13 6 16 5 4 8 13 5 21 -3 8 -1 14 5 14 6 0 7 6 3 13 -5 7 0 6 11 -3 10
-8 16 -10 12 -3 -9 14 2 45 14 37 5 -3 6 3 2 12 -5 14 -3 16 12 11 16 -7 16
-5 4 10 -7 10 -10 15 -6 12 10 -8 57 33 57 49 0 6 4 14 10 17 6 3 7 -1 4 -12
-4 -15 -3 -14 7 2 7 11 18 24 26 28 7 5 10 13 7 19 -4 6 -3 8 3 5 13 -8 36 17
25 28 -4 4 2 3 14 -3 16 -9 21 -8 21 3 0 8 -5 11 -10 8 -6 -4 -7 -1 -3 6 5 7
14 10 22 7 8 -3 14 -1 14 3 0 12 68 54 86 54 8 0 14 5 14 10 0 6 3 7 7 4 3 -4
12 1 20 11 9 10 12 11 7 2 -5 -10 1 -8 16 5 15 13 21 15 16 5 -7 -13 -6 -13 6
0 7 8 19 15 26 16 6 1 24 2 38 3 16 0 23 5 18 12 -4 7 -1 10 7 7 8 -3 20 2 27
11 11 14 11 14 6 -2 -5 -13 -2 -16 10 -11 9 3 14 9 11 13 -2 4 16 6 39 4 25
-2 47 1 51 6 3 6 13 11 21 11 10 0 12 -5 8 -12 -6 -10 -5 -10 8 -1 8 7 18 10
21 6 4 -3 7 0 7 7 0 9 5 8 13 -5 10 -12 19 -15 28 -9 21 13 58 12 69 -1 6 -7
22 -10 37 -7 20 4 24 2 18 -9 -8 -12 -6 -12 8 0 13 10 17 10 17 1 0 -9 4 -9
17 1 11 10 14 10 9 2 -4 -8 -2 -13 5 -13 7 0 22 -8 33 -17 20 -17 20 -17 7 0
-13 17 -13 17 12 6 15 -7 24 -15 22 -19 -2 -4 10 -6 27 -5 23 1 32 -3 36 -17
4 -15 7 -17 13 -6 7 10 9 9 9 -5 0 -14 5 -17 20 -12 14 4 20 2 18 -7 -2 -7 5
-12 14 -12 11 1 14 -4 11 -14 -4 -10 -2 -13 5 -8 7 4 12 2 12 -4 0 -6 5 -8 10
-5 9 6 15 -8 11 -29 -1 -5 5 -6 14 -3 8 4 15 1 15 -6 0 -7 9 -18 21 -25 12 -8
18 -19 15 -28 -3 -9 -1 -12 4 -9 6 3 10 1 10 -5 0 -6 5 -8 10 -5 6 4 10 3 9
-2 -3 -17 1 -33 9 -33 10 0 13 16 14 73 1 24 4 33 10 25 5 -9 8 -7 8 7 0 12 6
27 13 34 7 8 7 11 1 8 -8 -5 -11 3 -10 22 0 16 5 27 10 23 5 -3 7 2 3 11 -3 9
-1 18 6 21 8 3 8 5 -2 5 -10 1 -10 7 4 27 9 15 12 23 6 20 -15 -10 -14 7 2 23
6 8 7 11 1 8 -6 -3 -11 0 -11 8 0 8 5 11 10 8 6 -4 8 3 4 16 -4 18 -2 21 11
17 15 -5 15 -5 2 6 -16 13 -16 48 0 48 9 0 8 19 -3 37 -4 6 -3 14 3 18 6 3 8
18 6 31 -4 23 -3 24 11 12 9 -7 14 -8 10 -2 -10 18 -16 65 -7 59 5 -3 7 15 6
40 -2 34 1 42 10 34 9 -7 11 -5 10 8 0 10 -5 21 -11 25 -6 5 -4 8 5 8 13 0 13
1 0 10 -11 7 -11 10 -2 10 7 0 10 5 7 10 -3 6 -1 10 5 10 8 0 7 6 -1 21 -8 15
-8 19 0 15 15 -10 14 7 -1 23 -11 10 -10 11 3 6 10 -4 16 0 16 9 0 8 -5 12
-10 9 -6 -4 -7 -1 -1 8 5 8 10 25 11 39 1 14 0 19 -4 12 -4 -10 -8 -8 -17 8
-25 50 -297 130 -501 147 -130 11 -274 7 -377 -12 -16 -3 -40 -7 -54 -9 -31
-6 -127 39 -329 153 -22 13 -100 60 -173 104 -73 45 -141 87 -150 92 -9 6 -63
42 -120 80 -57 39 -118 79 -135 90 l-32 20 18 -29z m117 -106 c3 -3 17 -11 32
-19 15 -8 25 -19 21 -24 -3 -6 -2 -7 4 -4 14 9 75 -31 67 -45 -4 -7 -3 -8 4
-4 10 6 54 -15 72 -34 3 -3 17 -11 32 -19 15 -8 25 -19 21 -24 -3 -6 -1 -7 6
-3 13 9 64 -21 57 -33 -3 -4 5 -7 17 -7 12 1 21 -4 20 -11 -2 -7 4 -10 12 -7
8 4 15 1 15 -5 0 -6 3 -10 8 -9 14 3 42 -14 36 -23 -3 -5 -2 -8 3 -7 14 4 53
-13 53 -23 0 -6 4 -8 9 -4 5 3 16 -2 24 -10 9 -8 21 -15 27 -15 6 0 8 -4 5
-10 -4 -6 1 -7 11 -3 13 5 15 3 9 -7 -5 -9 -4 -11 3 -6 13 8 72 -20 72 -33 0
-5 10 -7 22 -3 14 3 19 2 14 -6 -5 -8 0 -12 13 -12 46 0 14 -17 -102 -54 -67
-22 -182 -70 -256 -108 -138 -70 -156 -77 -149 -56 3 7 -1 24 -9 38 -8 15 -9
26 -3 28 5 2 3 11 -6 19 -8 9 -13 24 -11 34 3 11 1 22 -5 25 -5 3 -7 13 -4 21
3 8 1 11 -4 8 -6 -3 -11 -3 -11 2 -1 4 -3 17 -5 28 -5 35 -12 58 -52 170 -66
182 -92 249 -104 270 -10 19 -10 19 8 5 10 -8 21 -17 24 -20z m-664 -25 c26
-3 52 -9 59 -15 10 -8 15 -8 21 1 5 9 10 7 20 -5 7 -10 15 -13 18 -8 7 11 46
4 46 -8 0 -5 9 -6 20 -3 12 3 20 0 20 -6 0 -7 5 -9 10 -6 14 8 82 -15 98 -34
9 -11 12 -12 12 -2 0 10 3 11 14 2 8 -7 24 -14 37 -16 12 -3 26 -10 29 -16 4
-6 10 -10 14 -10 26 4 37 -1 33 -13 -4 -9 0 -12 12 -9 10 2 24 -1 32 -9 8 -7
21 -14 29 -16 8 -2 17 -8 18 -13 2 -5 8 -7 13 -3 5 3 9 0 9 -6 0 -6 5 -8 10
-5 6 3 10 2 10 -4 0 -5 10 -13 23 -17 12 -3 29 -13 37 -20 8 -8 30 -26 48 -40
23 -18 32 -34 32 -54 0 -16 5 -32 11 -35 6 -4 8 -13 5 -20 -2 -7 1 -18 7 -24
8 -8 7 -11 -3 -11 -13 0 -13 -2 0 -10 8 -5 15 -13 15 -17 0 -8 21 -81 33 -113
3 -8 6 -21 8 -29 1 -8 5 -25 8 -37 5 -18 -2 -27 -31 -45 -107 -67 -291 -242
-401 -383 -12 -16 -22 -25 -23 -20 0 5 -2 18 -4 29 -3 11 -6 44 -7 72 -2 29
-6 53 -10 53 -4 0 -7 8 -7 18 0 31 -8 87 -15 103 -4 9 -8 27 -10 41 -1 13 -5
28 -8 33 -3 6 -7 26 -9 45 -2 19 -8 41 -13 49 -9 12 -8 13 4 6 10 -5 9 -1 -3
13 -11 11 -16 25 -13 31 4 5 2 12 -4 16 -5 3 -10 17 -10 29 0 13 -7 36 -14 52
-8 15 -13 31 -10 36 3 4 1 8 -4 8 -9 0 -11 8 -15 54 -1 13 -5 22 -9 20 -9 -6
-29 56 -21 69 3 6 1 7 -6 3 -6 -4 -13 0 -17 11 -6 18 -11 30 -46 91 -35 62
-65 103 -120 160 -29 31 -47 52 -40 48 7 -4 33 -9 58 -11z m-247 -158 c11 -9
13 -9 8 0 -6 9 4 11 35 8 24 -2 43 -4 43 -5 0 -2 38 -10 63 -12 12 -1 22 -5
22 -8 0 -3 10 -6 22 -7 11 -1 24 -6 27 -10 3 -4 13 -8 21 -8 8 0 14 -5 13 -12
-2 -7 3 -10 11 -7 20 8 68 -26 62 -43 -3 -8 -1 -11 4 -8 9 6 11 1 14 -33 1 -7
6 -16 11 -20 21 -15 34 -49 23 -60 -7 -7 -3 -14 12 -22 12 -7 19 -18 16 -26
-3 -8 -1 -14 4 -14 5 0 7 -9 5 -20 -2 -11 0 -18 4 -15 5 2 11 -8 14 -23 3 -15
12 -52 22 -82 9 -30 16 -65 16 -77 -1 -13 3 -23 7 -23 4 0 9 -11 10 -25 1 -14
3 -36 4 -50 1 -14 5 -25 8 -25 4 0 7 -16 8 -35 1 -19 6 -44 12 -55 8 -15 8
-20 -2 -20 -9 0 -9 -3 -2 -8 5 -4 10 -17 11 -29 0 -13 2 -24 3 -25 2 -2 3 -14
4 -28 1 -14 4 -29 7 -35 3 -5 7 -30 8 -54 2 -24 4 -52 6 -61 2 -10 -8 -34 -21
-54 -33 -48 -131 -244 -139 -278 -8 -30 -24 -38 -26 -13 -2 18 -3 21 -20 65
-7 19 -12 38 -11 43 1 4 -3 7 -8 7 -5 0 -9 3 -8 8 1 4 -3 17 -10 29 -7 12 -11
26 -10 30 1 4 -7 28 -19 53 -24 53 -56 123 -58 130 0 3 -18 38 -38 79 -20 40
-34 78 -30 84 3 5 2 7 -4 4 -5 -3 -18 11 -29 31 -32 62 -94 162 -140 229 -25
34 -43 63 -40 63 2 0 -10 15 -27 34 -39 40 -67 75 -67 81 0 15 -188 184 -252
227 -43 28 -77 53 -75 53 1 1 13 8 26 15 19 10 22 10 15 -2 -6 -10 -5 -11 7
-1 8 6 23 13 34 15 11 1 23 7 27 12 4 6 13 4 23 -4 13 -10 15 -11 13 -1 -3 13
7 17 72 28 19 3 37 7 39 9 2 2 10 -1 18 -8 7 -6 16 -8 20 -4 3 3 1 6 -6 6 -7
0 -10 3 -8 8 9 13 179 12 196 -1z m-336 -236 c-3 -10 11 -15 30 -12 5 1 6 -2
3 -7 -3 -5 4 -14 14 -22 10 -8 17 -17 14 -22 -3 -4 1 -5 9 -2 10 3 17 -4 21
-20 3 -14 12 -25 19 -23 6 1 11 -4 10 -10 -2 -7 4 -13 12 -13 8 0 16 -4 16
-10 1 -5 2 -16 3 -22 0 -7 6 -13 12 -13 6 0 23 -15 38 -32 15 -18 24 -33 20
-33 -4 0 0 -6 11 -13 11 -9 15 -19 10 -27 -5 -8 -4 -11 2 -7 11 7 46 -39 46
-60 0 -7 3 -11 5 -8 8 8 34 -34 27 -45 -3 -6 1 -10 9 -10 9 0 16 -4 16 -10 0
-21 2 -25 16 -33 8 -5 12 -12 9 -18 -4 -5 -2 -9 2 -9 5 0 14 -9 21 -21 11 -17
11 -20 0 -13 -9 5 -8 2 2 -12 8 -10 17 -21 20 -24 3 -3 12 -18 20 -35 8 -16
22 -42 32 -57 10 -14 18 -32 18 -39 0 -7 7 -21 16 -30 9 -10 18 -31 20 -46 1
-15 8 -29 13 -31 6 -2 9 -8 5 -13 -3 -5 2 -12 11 -15 13 -5 13 -9 3 -22 -7 -9
-8 -13 -2 -9 9 5 32 -39 34 -68 1 -5 8 -14 17 -19 13 -7 13 -10 2 -17 -11 -7
-11 -9 -1 -9 7 0 10 -4 7 -10 -3 -5 -1 -10 5 -10 7 0 10 -6 7 -14 -3 -8 1 -17
9 -20 8 -3 14 -14 14 -24 0 -10 6 -24 13 -31 9 -10 9 -12 0 -7 -8 4 -7 -2 2
-21 23 -43 27 -84 15 -133 -6 -25 -13 -56 -16 -70 -3 -14 -9 -43 -14 -64 -5
-22 -6 -45 -4 -50 7 -14 -26 23 -51 58 -40 56 -119 161 -130 173 -5 6 -21 26
-35 44 -14 19 -41 52 -60 74 -19 22 -39 45 -45 52 -17 22 -270 277 -296 298
-141 116 -232 178 -359 246 -35 19 -128 58 -165 69 -22 7 -47 15 -55 18 -31
11 -74 19 -129 27 -37 5 -55 15 -26 15 10 0 15 3 12 7 -10 9 43 34 56 26 6 -3
7 -1 3 5 -4 7 6 20 26 31 18 11 38 25 45 30 27 24 85 51 95 45 6 -4 9 -3 6 2
-3 5 0 15 8 22 8 7 14 10 14 7 0 -3 10 1 23 10 13 8 27 12 32 8 4 -5 5 -2 1 5
-4 6 -2 12 3 12 17 0 25 3 39 14 7 6 18 16 25 21 7 6 19 11 27 13 8 2 17 7 20
11 3 5 13 7 23 5 9 -1 15 2 12 6 -7 11 31 23 45 15 6 -4 9 -2 8 4 -2 5 14 19
34 29 21 11 35 15 32 8 -3 -6 0 -4 8 5 7 9 23 15 35 14 12 -1 20 2 17 6 -2 4
2 9 8 12 16 6 54 -18 51 -32z m2829 -1850 c15 8 19 8 14 0 -4 -6 -4 -11 -1
-11 4 0 16 5 27 11 15 8 19 8 14 0 -4 -6 0 -11 9 -11 9 0 13 5 9 11 -5 8 -1 8
14 0 27 -14 35 -14 26 2 -5 8 -2 8 9 -2 13 -10 17 -10 17 -1 0 9 3 10 13 1 8
-6 17 -8 20 -4 4 3 7 1 7 -6 0 -7 8 -11 18 -9 9 1 23 -1 31 -6 9 -6 12 -5 8 1
-4 6 0 14 9 17 8 3 12 2 9 -4 -9 -14 8 -12 24 3 11 10 13 10 7 0 -4 -7 -2 -14
3 -14 21 -3 26 -4 40 -13 11 -7 12 -6 6 5 -5 8 2 5 15 -6 13 -11 20 -15 17 -8
-12 20 33 2 46 -18 7 -11 18 -19 25 -19 7 0 10 -4 7 -10 -3 -5 -1 -10 6 -10 7
0 9 -3 6 -7 -4 -3 1 -12 11 -19 14 -10 17 -28 16 -116 -2 -232 -99 -354 -314
-394 -42 -8 -297 -13 -323 -6 -17 4 -17 5 0 19 11 9 12 12 3 7 -12 -6 -13 -4
-2 7 6 7 12 17 12 22 0 4 -6 5 -12 1 -10 -6 -10 -5 -1 8 7 8 10 18 6 21 -3 4
-1 7 6 7 7 0 9 5 6 10 -4 6 -2 17 5 25 8 9 8 15 0 20 -8 5 -8 10 0 20 6 8 10
19 9 27 -4 30 2 49 12 42 7 -4 7 1 -1 16 -9 16 -9 25 -1 33 15 15 14 30 -1 22
-7 -4 -4 1 7 10 15 13 16 19 7 22 -10 4 -8 9 5 19 16 12 16 15 3 24 -12 8 -12
10 -1 10 8 0 11 7 8 20 -3 11 -1 20 3 20 5 0 7 9 5 20 -2 11 2 20 8 20 7 0 6
4 -3 10 -10 6 -11 10 -2 10 6 0 11 3 11 8 -4 26 2 82 9 78 5 -3 9 1 9 9 0 8
-4 15 -9 15 -4 0 -8 5 -8 11 0 5 4 8 9 5 5 -3 12 4 16 17 4 13 8 17 11 10 4
-10 11 -10 26 -2z m1023 -891 c-3 -5 -12 -10 -18 -10 -7 0 -6 4 3 10 19 12 23
12 15 0z"/>
<path d="M2198 4543 c7 -3 16 -2 19 1 4 3 -2 6 -13 5 -11 0 -14 -3 -6 -6z"/>
<path d="M3215 3510 c-3 -5 -1 -10 4 -10 6 0 11 5 11 10 0 6 -2 10 -4 10 -3 0
-8 -4 -11 -10z"/>
</g>
</svg>
